<?xml version="1.0" encoding="utf-8"?>
<!-- Generator: Adobe Illustrator 28.4.1, SVG Export Plug-In . SVG Version: 6.00 Build 0)  -->
<svg version="1.1" xmlns="http://www.w3.org/2000/svg" xmlns:xlink="http://www.w3.org/1999/xlink" x="0px" y="0px"
	 viewBox="0 0 48 48" style="enable-background:new 0 0 48 48;" xml:space="preserve">
<style type="text/css">
	.st0{display:none;}
	.st1{display:inline;}
	.st2{display:none;fill:none;}
	.st3{fill:#3498DB;}
	.st4{display:inline;fill:#1769FF;}
	.st5{display:inline;fill:#FFFFFF;}
	.st6{fill:#1EB8EB;}
	.st7{fill:#FFFFFF;}
</style>
<g id="Layer_1" class="st0">
	<g class="st1">
		<path class="st2" d="M0,48V0h48v48H0z"/>
		<g>
			<path class="st3" d="M38.4,6.4H9.6c-1.8,0-3.2,1.4-3.2,3.2v28.8c0,1.8,1.4,3.2,3.2,3.2h28.8c1.8,0,3.2-1.4,3.2-3.2V9.6
				C41.6,7.8,40.2,6.4,38.4,6.4z M17.5,35.2h-4.7V20h4.7V35.2z M15.1,17.8c-1.5,0-2.8-1.2-2.8-2.8s1.2-2.8,2.8-2.8
				c1.5,0,2.8,1.2,2.8,2.8C17.9,16.6,16.6,17.8,15.1,17.8z M35.2,35.2h-4.7v-7.4c0-1.8,0-4-2.5-4c-2.5,0-2.8,1.9-2.8,3.9v7.5h-4.7
				V20H25v2.1h0.1c0.6-1.2,2.2-2.5,4.5-2.5c4.8,0,5.7,3.1,5.7,7.2V35.2z"/>
		</g>
	</g>
</g>
<g id="Layer_2" class="st0">
	<path d="M16.5,12.7c1,0,1.9,0.1,2.9,0.3c0.9,0.2,1.6,0.5,2.2,0.9c0.6,0.4,1.1,1,1.4,1.7c0.3,0.8,0.5,1.7,0.5,2.5
		c0,1.1-0.2,2.1-0.8,2.8c-0.5,0.7-1.3,1.3-2.2,1.8c1.2,0.3,2.3,1,3,2.1c0.6,1,1,2.1,1,3.5c0,1-0.2,2-0.6,2.9c-0.4,0.8-1,1.5-1.7,2
		c-0.8,0.5-1.6,0.9-2.5,1.1c-0.9,0.2-1.9,0.4-2.9,0.4H6.1V12.7H16.5z M15.9,21.6c0.9,0,1.6-0.2,2.1-0.6c0.6-0.4,0.8-1.1,0.8-2
		c0-0.4-0.1-0.9-0.2-1.3c-0.2-0.3-0.4-0.6-0.7-0.8c-0.3-0.2-0.6-0.3-1-0.4s-0.8-0.1-1.3-0.1H11v5.2L15.9,21.6z M16.1,31.1
		c0.5,0,0.9-0.1,1.3-0.2c0.8-0.2,1.5-0.6,1.9-1.3c0.2-0.4,0.3-0.9,0.3-1.4c0-1.1-0.3-1.9-1-2.5c-0.6-0.5-1.5-0.7-2.5-0.7h-5.2V31
		L16.1,31.1z M31.4,31c0.6,0.6,1.6,1,2.9,1c0.8,0,1.6-0.2,2.3-0.6c0.5-0.3,1-0.8,1.2-1.4h3.9c-0.6,1.9-1.6,3.3-2.9,4.1
		c-1.3,0.8-2.8,1.3-4.6,1.3c-1.2,0-2.3-0.2-3.4-0.6c-1-0.4-1.9-1-2.5-1.8c-0.7-0.7-1.3-1.6-1.6-2.6c-0.4-1.1-0.6-2.3-0.6-3.4
		c0-1.2,0.2-2.3,0.6-3.3c0.4-1,0.9-1.9,1.7-2.7c0.7-0.7,1.6-1.3,2.5-1.8c1.1-0.4,2.2-0.6,3.3-0.6c1.3,0,2.5,0.2,3.6,0.8
		c1,0.6,1.8,1.2,2.5,2.1c0.6,0.9,1.1,1.9,1.4,3c0.2,1.1,0.2,2.2,0.2,3.5H30.3C30.3,29,30.7,30.1,31.4,31L31.4,31z M36.5,22.6
		c-0.6-0.6-1.4-0.9-2.5-0.9c-0.7,0-1.3,0.2-1.7,0.4c-0.5,0.2-0.8,0.6-1.1,0.9c-0.3,0.3-0.5,0.7-0.6,1.1c-0.1,0.4-0.2,0.7-0.2,1h7.2
		C37.5,24.2,37.1,23.3,36.5,22.6L36.5,22.6z M29.5,14.3h8.9v2.1h-8.9V14.3z"/>
	<circle id="background" class="st4" cx="24" cy="24" r="17.9"/>
	<path id="behance" class="st5" d="M18.8,15.9c0.8,0,1.5,0.1,2.1,0.2c0.6,0.1,1.2,0.4,1.6,0.7s0.8,0.7,1.1,1.2
		c0.3,0.5,0.4,1.2,0.4,1.9c0,0.8-0.2,1.5-0.6,2c-0.4,0.5-0.9,1-1.6,1.3c1,0.3,1.7,0.8,2.2,1.5c0.5,0.7,0.7,1.6,0.7,2.6
		c0,0.8-0.2,1.5-0.5,2.1c-0.3,0.6-0.7,1.1-1.3,1.5c-0.5,0.4-1.2,0.7-1.8,0.8c-0.7,0.2-1.4,0.3-2.1,0.3h-7.9V15.9H18.8z M18.3,22.5
		c0.6,0,1.2-0.2,1.6-0.5c0.4-0.3,0.6-0.8,0.6-1.5c0-0.4-0.1-0.7-0.2-0.9c-0.1-0.2-0.3-0.4-0.5-0.6c-0.2-0.1-0.5-0.2-0.8-0.3
		c-0.3-0.1-0.6-0.1-0.9-0.1h-3.3v3.8L18.3,22.5L18.3,22.5z M18.5,29.3c0.3,0,0.7,0,1-0.1c0.3-0.1,0.6-0.2,0.8-0.3
		c0.2-0.2,0.4-0.4,0.6-0.6c0.1-0.3,0.2-0.6,0.2-1c0-0.8-0.2-1.4-0.7-1.8c-0.5-0.4-1.1-0.5-1.9-0.5h-3.9v4.4L18.5,29.3L18.5,29.3z
		 M29.2,29c0.5,0.5,1.2,0.7,2.1,0.7c0.7,0,1.2-0.2,1.7-0.5s0.8-0.7,0.9-1h2.8c-0.5,1.4-1.2,2.4-2.1,3c-0.9,0.6-2.1,0.9-3.4,0.9
		c-0.9,0-1.8-0.1-2.5-0.4c-0.7-0.3-1.4-0.7-1.9-1.3c-0.5-0.5-0.9-1.2-1.2-2c-0.3-0.8-0.4-1.6-0.4-2.5c0-0.9,0.1-1.7,0.4-2.5
		c0.3-0.8,0.7-1.4,1.2-2c0.5-0.6,1.2-1,1.9-1.3c0.7-0.3,1.5-0.5,2.4-0.5c1,0,1.9,0.2,2.6,0.6c0.7,0.4,1.4,0.9,1.8,1.6s0.8,1.4,1,2.2
		c0.2,0.8,0.3,1.7,0.2,2.6h-8.5C28.4,27.8,28.7,28.5,29.2,29L29.2,29z M32.8,22.8c-0.4-0.4-1-0.6-1.8-0.6c-0.5,0-0.9,0.1-1.3,0.3
		c-0.3,0.2-0.6,0.4-0.8,0.6c-0.2,0.3-0.3,0.5-0.4,0.8c-0.1,0.3-0.1,0.5-0.1,0.8h5.2C33.5,23.9,33.2,23.2,32.8,22.8L32.8,22.8z
		 M27.8,16.7h6.6v1.8h-6.6V16.7z"/>
</g>
<g id="Layer_3">
	<path class="st6" d="M11.5,6.1h25c3,0,5.4,2.4,5.4,5.4v25c0,3-2.4,5.4-5.4,5.4h-25c-3,0-5.4-2.4-5.4-5.4v-25
		C6.1,8.5,8.5,6.1,11.5,6.1z"/>
	<path class="st7" d="M35.3,19c-1.3,7.6-8.9,14.1-11.2,15.6c-2.2,1.5-4.3-0.6-5.1-2.1c-0.8-1.8-3.4-11.5-4.1-12.3
		c-0.6-0.8-2.7,0.8-2.7,0.8l-0.9-1.3c0,0,4.1-5,7.3-5.5c3.3-0.7,3.3,5.1,4.1,8.2c0.8,3.1,1.3,4.9,1.9,4.9c0.7,0,2-1.7,3.4-4.4
		c1.5-2.6-0.1-5-2.9-3.3C26.2,13,36.6,11.4,35.3,19z"/>
</g>
</svg>
